{"accessors":[{"bufferView":0,"byteOffset":0,"componentType":5126,"count":6,"max":[2,0,2],"min":[-2,0,-2],"normalized":false,"type":"VEC3"},{"bufferView":1,"byteOffset":0,"componentType":5126,"count":6,"max":[1,0,-0.000015,1],"min":[1,0,-0.000015,1],"normalized":false,"type":"VEC4"},{"bufferView":2,"byteOffset":0,"componentType":5126,"count":6,"max":[0,1,-0.000015],"min":[0,1,-0.000015],"normalized":false,"type":"VEC3"},{"bufferView":3,"byteOffset":0,"componentType":5126,"count":6,"max":[1,1],"min":[0,0],"normalized":false,"type":"VEC2"},{"bufferView":4,"byteOffset":0,"componentType":5125,"count":6,"max":[5],"min":[0],"normalized":false,"type":"SCALAR"},{"bufferView":5,"byteOffset":0,"componentType":5126,"count":12,"max":[2,2,2],"min":[-2,0,-2],"normalized":false,"type":"VEC3"},{"bufferView":6,"byteOffset":0,"componentType":5126,"count":12,"max":[0,1,0.000046,1],"min":[-0.000015,1,-0.000015,1],"normalized":false,"type":"VEC4"},{"bufferView":7,"byteOffset":0,"componentType":5126,"count":12,"max":[-0.000015,0,1],"min":[-1,-0.000015,-0.000015],"normalized":false,"type":"VEC3"},{"bufferView":8,"byteOffset":0,"componentType":5126,"count":12,"max":[1,1],"min":[0,0],"normalized":false,"type":"VEC2"},{"bufferView":9,"byteOffset":0,"componentType":5125,"count":12,"max":[11],"min":[0],"normalized":false,"type":"SCALAR"}],"asset":{"generator":"Godot Engine v4.2.1.stable.official@b09f793f564a6c95dc76acc654b390e68441bd01","version":"2.0"},"bufferViews":[{"buffer":0,"byteLength":72,"byteOffset":0},{"buffer":0,"byteLength":96,"byteOffset":72},{"buffer":0,"byteLength":72,"byteOffset":168},{"buffer":0,"byteLength":48,"byteOffset":240},{"buffer":0,"byteLength":24,"byteOffset":288},{"buffer":0,"byteLength":144,"byteOffset":312},{"buffer":0,"byteLength":192,"byteOffset":456},{"buffer":0,"byteLength":144,"byteOffset":648},{"buffer":0,"byteLength":96,"byteOffset":792},{"buffer":0,"byteLength":48,"byteOffset":888}],"buffers":[{"byteLength":936,"uri":"corner0.bin"}],"extensionsUsed":["GODOT_single_root"],"materials":[{"extensions":{},"pbrMetallicRoughness":{"baseColorFactor":[0.99999988079071,0.99999988079071,0.99999988079071,1],"metallicFactor":0,"roughnessFactor":1}},{"extensions":{},"pbrMetallicRoughness":{"baseColorFactor":[0.99999988079071,0.99999988079071,0.99999988079071,1],"metallicFactor":0,"roughnessFactor":1}}],"meshes":[{"extras":{"targetNames":[]},"primitives":[{"attributes":{"NORMAL":2,"POSITION":0,"TANGENT":1,"TEXCOORD_0":3},"indices":4,"material":0,"mode":4},{"attributes":{"NORMAL":7,"POSITION":5,"TANGENT":6,"TEXCOORD_0":8},"indices":9,"material":1,"mode":4}]}],"nodes":[{"children":[1,2,3],"extensions":{},"mesh":0,"name":"Corner2"},{"extensions":{},"name":"Floor"},{"extensions":{},"name":"Wall","rotation":[0,0,0.70710676908493,0.70710676908493],"translation":[2,1,0]},{"extensions":{},"name":"Wall2","rotation":[0.5,0.5,0.5,0.5],"translation":[0,1,-2]}],"scene":0,"scenes":[{"nodes":[0]}]}